# OBJ generated by ONSHAPE BY PTC INC, 1.193 Units = meters
mtllib lamp (level 1) - hiddenthreadz - 02202025.mtl
g Part 1
v 0.00257486 0.000280033 0.0687378 
v 0.00252949 0.000556782 0.0687378 
v 0.00245446 0.000827004 0.0687378 
v 0.00235066 0.00108753 0.0687378 
v 0.0022193 0.00133531 0.0687378 
v 0.00206191 0.00156743 0.0687378 
v 0.00188036 0.00178117 0.0687378 
v 0.00167676 0.00197403 0.0687378 
v 0.0014535 0.00214375 0.0687378 
v 0.0012132 0.00228833 0.0687378 
v 0.000958673 0.00240609 0.0687378 
v 0.00069291 0.00249564 0.0687378 
v 0.000419022 0.00255592 0.0687378 
v 0.000140222 0.00258624 0.0687378 
v -0.000140222 0.00258624 0.0687378 
v -0.000419022 0.00255592 0.0687378 
v -0.00069291 0.00249564 0.0687378 
v -0.000958673 0.00240609 0.0687378 
v -0.0012132 0.00228833 0.0687378 
v -0.0014535 0.00214375 0.0687378 
v -0.00167676 0.00197403 0.0687378 
v -0.00188036 0.00178117 0.0687378 
v -0.00206191 0.00156743 0.0687378 
v -0.0022193 0.00133531 0.0687378 
v -0.00235066 0.00108753 0.0687378 
v -0.00245446 0.000827004 0.0687378 
v -0.00252949 0.000556782 0.0687378 
v -0.00257486 0.000280033 0.0687378 
v -0.00259004 1.25388e-19 0.0687378 
v -0.00257486 -0.000280033 0.0687378 
v -0.00252949 -0.000556782 0.0687378 
v -0.00245446 -0.000827004 0.0687378 
v -0.00235066 -0.00108753 0.0687378 
v -0.0022193 -0.00133531 0.0687378 
v -0.00206191 -0.00156743 0.0687378 
v -0.00188036 -0.00178117 0.0687378 
v -0.00167676 -0.00197403 0.0687378 
v -0.0014535 -0.00214375 0.0687378 
v -0.0012132 -0.00228833 0.0687378 
v -0.000958673 -0.00240609 0.0687378 
v -0.00069291 -0.00249564 0.0687378 
v -0.000419022 -0.00255592 0.0687378 
v -0.000140222 -0.00258624 0.0687378 
v 0.000140222 -0.00258624 0.0687378 
v 0.000419022 -0.00255592 0.0687378 
v 0.00069291 -0.00249564 0.0687378 
v 0.000958673 -0.00240609 0.0687378 
v 0.0012132 -0.00228833 0.0687378 
v 0.0014535 -0.00214375 0.0687378 
v 0.00167676 -0.00197403 0.0687378 
v 0.00188036 -0.00178117 0.0687378 
v 0.00206191 -0.00156743 0.0687378 
v 0.0022193 -0.00133531 0.0687378 
v 0.00235066 -0.00108753 0.0687378 
v 0.00245446 -0.000827004 0.0687378 
v 0.00252949 -0.000556782 0.0687378 
v 0.00257486 -0.000280033 0.0687378 
v 0.00259004 1.07695e-18 0.0687378 
v 0 1.25388e-19 0.0687378 
v -0.0154885 1.25388e-19 0.05111 
v -0.0153977 0.0016746 0.05111 
v -0.0151264 0.00332957 0.05111 
v -0.0146777 0.0049455 0.05111 
v -0.014057 0.00650345 0.05111 
v -0.0132714 0.00798515 0.05111 
v -0.0123303 0.00937324 0.05111 
v -0.0112446 0.0106514 0.05111 
v -0.010027 0.0118047 0.05111 
v -0.00869194 0.0128197 0.05111 
v -0.00725494 0.0136843 0.05111 
v -0.00573288 0.0143884 0.05111 
v -0.00414361 0.0149239 0.05111 
v -0.00250576 0.0152845 0.05111 
v -0.00083853 0.0154658 0.05111 
v 0.00083853 0.0154658 0.05111 
v 0.00250576 0.0152845 0.05111 
v 0.00414361 0.0149239 0.05111 
v 0.00573288 0.0143884 0.05111 
v 0.00725494 0.0136843 0.05111 
v 0.00869194 0.0128197 0.05111 
v 0.010027 0.0118047 0.05111 
v 0.0112446 0.0106514 0.05111 
v 0.0123303 0.00937324 0.05111 
v 0.0132714 0.00798515 0.05111 
v 0.014057 0.00650345 0.05111 
v 0.0146777 0.0049455 0.05111 
v 0.0151264 0.00332957 0.05111 
v 0.0153977 0.0016746 0.05111 
v 0.0154885 2.02218e-18 0.05111 
v 0.0153977 -0.0016746 0.05111 
v 0.0151264 -0.00332957 0.05111 
v 0.0146777 -0.0049455 0.05111 
v 0.014057 -0.00650345 0.05111 
v 0.0132714 -0.00798515 0.05111 
v 0.0123303 -0.00937324 0.05111 
v 0.0112446 -0.0106514 0.05111 
v 0.010027 -0.0118047 0.05111 
v 0.00869194 -0.0128197 0.05111 
v 0.00725494 -0.0136843 0.05111 
v 0.00573288 -0.0143884 0.05111 
v 0.00414361 -0.0149239 0.05111 
v 0.00250576 -0.0152845 0.05111 
v 0.00083853 -0.0154658 0.05111 
v -0.00083853 -0.0154658 0.05111 
v -0.00250576 -0.0152845 0.05111 
v -0.00414361 -0.0149239 0.05111 
v -0.00573288 -0.0143884 0.05111 
v -0.00725494 -0.0136843 0.05111 
v -0.00869194 -0.0128197 0.05111 
v -0.010027 -0.0118047 0.05111 
v -0.0112446 -0.0106514 0.05111 
v -0.0123303 -0.00937324 0.05111 
v -0.0132714 -0.00798515 0.05111 
v -0.014057 -0.00650345 0.05111 
v -0.0146777 -0.0049455 0.05111 
v -0.0151264 -0.00332957 0.05111 
v -0.0153977 -0.0016746 0.05111 
v 0.00185848 -0.000859826 0.05111 
v 0.00194055 -0.000653848 0.05111 
v 0.00175462 -0.00105572 0.05111 
v -0.000331288 0.00202077 0.05111 
v -0.00054783 0.0019731 0.05111 
v -0.000110863 0.00204474 0.05111 
v 0.000110863 0.00204474 0.05111 
v 0.000331288 0.00202077 0.05111 
v 0.0016302 -0.00123924 0.05111 
v 0.00148665 -0.00140823 0.05111 
v 0.00132568 -0.00156071 0.05111 
v 0.000959181 -0.00180921 0.05111 
v 0.000757948 -0.00190231 0.05111 
v 0.000110863 -0.00204474 0.05111 
v 0.000331288 -0.00202077 0.05111 
v -0.000110863 -0.00204474 0.05111 
v -0.000331288 -0.00202077 0.05111 
v -0.00054783 -0.0019731 0.05111 
v 0.00054783 0.0019731 0.05111 
v 0.000757948 0.00190231 0.05111 
v 0.00114917 0.0016949 0.05111 
v 0.000959181 0.00180921 0.05111 
v 0.00132568 0.00156071 0.05111 
v 0.00114917 -0.0016949 0.05111 
v 0.00054783 -0.0019731 0.05111 
v -0.000757948 -0.00190231 0.05111 
v -0.000959181 -0.00180921 0.05111 
v -0.000757948 0.00190231 0.05111 
v -0.000959181 0.00180921 0.05111 
v 0.00148665 0.00140823 0.05111 
v -0.00114917 -0.0016949 0.05111 
v -0.00132568 -0.00156071 0.05111 
v -0.00148665 -0.00140823 0.05111 
v 0.0016302 0.00123924 0.05111 
v 0.00175462 0.00105572 0.05111 
v 0.00185848 0.000859826 0.05111 
v 0.00194055 0.000653848 0.05111 
v -0.00132568 0.00156071 0.05111 
v -0.00148665 0.00140823 0.05111 
v -0.00114917 0.0016949 0.05111 
v -0.00175462 -0.00105572 0.05111 
v -0.0016302 -0.00123924 0.05111 
v -0.00185848 -0.000859826 0.05111 
v -0.00203574 0.0002214 0.05111 
v -0.00204774 1.25388e-19 0.05111 
v -0.00199987 0.000440205 0.05111 
v -0.00185848 0.000859826 0.05111 
v -0.00194055 0.000653848 0.05111 
v -0.00175462 0.00105572 0.05111 
v -0.0016302 0.00123924 0.05111 
v 0.00203574 0.0002214 0.05111 
v 0.00199987 0.000440205 0.05111 
v 0.00204774 8.77717e-19 0.05111 
v -0.00194055 -0.000653848 0.05111 
v -0.00203574 -0.0002214 0.05111 
v -0.00199987 -0.000440205 0.05111 
v 0.00203574 -0.0002214 0.05111 
v 0.00199987 -0.000440205 0.05111 
v -0.00204774 1.25388e-19 0.00127 
v -0.00203574 0.0002214 0.00127 
v -0.00199987 0.000440205 0.00127 
v -0.00194055 0.000653848 0.00127 
v -0.00185848 0.000859826 0.00127 
v -0.00175462 0.00105572 0.00127 
v -0.0016302 0.00123924 0.00127 
v -0.00148665 0.00140823 0.00127 
v -0.00132568 0.00156071 0.00127 
v -0.00114917 0.0016949 0.00127 
v -0.000959181 0.00180921 0.00127 
v -0.000757948 0.00190231 0.00127 
v -0.00054783 0.0019731 0.00127 
v -0.000331288 0.00202077 0.00127 
v -0.000110863 0.00204474 0.00127 
v 0.000110863 0.00204474 0.00127 
v 0.000331288 0.00202077 0.00127 
v 0.00054783 0.0019731 0.00127 
v 0.000757948 0.00190231 0.00127 
v 0.000959181 0.00180921 0.00127 
v 0.00114917 0.0016949 0.00127 
v 0.00132568 0.00156071 0.00127 
v 0.00148665 0.00140823 0.00127 
v 0.0016302 0.00123924 0.00127 
v 0.00175462 0.00105572 0.00127 
v 0.00185848 0.000859826 0.00127 
v 0.00194055 0.000653848 0.00127 
v 0.00199987 0.000440205 0.00127 
v 0.00203574 0.0002214 0.00127 
v 0.00204774 3.76165e-19 0.00127 
v 0.00203574 -0.0002214 0.00127 
v 0.00199987 -0.000440205 0.00127 
v 0.00194055 -0.000653848 0.00127 
v 0.00185848 -0.000859826 0.00127 
v 0.00175462 -0.00105572 0.00127 
v 0.0016302 -0.00123924 0.00127 
v 0.00148665 -0.00140823 0.00127 
v 0.00132568 -0.00156071 0.00127 
v 0.00114917 -0.0016949 0.00127 
v 0.000959181 -0.00180921 0.00127 
v 0.000757948 -0.00190231 0.00127 
v 0.00054783 -0.0019731 0.00127 
v 0.000331288 -0.00202077 0.00127 
v 0.000110863 -0.00204474 0.00127 
v -0.000110863 -0.00204474 0.00127 
v -0.000331288 -0.00202077 0.00127 
v -0.00054783 -0.0019731 0.00127 
v -0.000757948 -0.00190231 0.00127 
v -0.000959181 -0.00180921 0.00127 
v -0.00114917 -0.0016949 0.00127 
v -0.00132568 -0.00156071 0.00127 
v -0.00148665 -0.00140823 0.00127 
v -0.0016302 -0.00123924 0.00127 
v -0.00175462 -0.00105572 0.00127 
v -0.00185848 -0.000859826 0.00127 
v -0.00194055 -0.000653848 0.00127 
v -0.00199987 -0.000440205 0.00127 
v -0.00203574 -0.0002214 0.00127 
v 0.000844315 0.0155725 0.00127 
v 0.0041722 0.0150269 0.00127 
v 0.00252305 0.0153899 0.00127 
v -0.00579521 -0.00761348 0.00127 
v 0.014779 0.00497962 0.00127 
v 0.014154 0.00654832 0.00127 
v 0.013363 0.00804024 0.00127 
v 0.0124153 0.0094379 0.00127 
v -0.00562549 -0.00767067 0.00127 
v -0.00546295 -0.00774587 0.00127 
v 0.0100962 0.0118862 0.00127 
v 0.00875191 0.0129081 0.00127 
v 0.00730499 0.0137787 0.00127 
v 0.00577243 0.0144877 0.00127 
v 0.0113222 0.0107249 0.00127 
v -0.00482044 -0.00835449 0.00127 
v 0.0155953 6.68458e-18 0.00127 
v -0.00614817 -0.00755562 0.00127 
v -0.00577243 0.0144877 0.00127 
v -0.00730499 0.0137787 0.00127 
v -0.00503689 -0.00806975 0.00127 
v -0.00492094 -0.00820625 0.00127 
v -0.000844315 0.0155725 0.00127 
v -0.00252305 0.0153899 0.00127 
v -0.00597012 -0.00757498 0.00127 
v -0.0041722 0.0150269 0.00127 
v -0.00632727 -0.00755562 0.00127 
v -0.00875191 0.0129081 0.00127 
v -0.0100962 0.0118862 0.00127 
v -0.00668022 -0.00761348 0.00127 
v -0.0124153 0.0094379 0.00127 
v -0.013363 0.00804024 0.00127 
v -0.00459337 -0.00902841 0.00127 
v -0.00458367 -0.00920724 0.00127 
v 0.0124153 -0.0094379 0.00127 
v -0.00467026 -0.0086791 0.00127 
v -0.00462234 -0.00885167 0.00127 
v 0.014779 -0.00497962 0.00127 
v -0.00473655 -0.00851272 0.00127 
v 0.0155039 -0.00168615 0.00127 
v -0.0113222 0.0107249 0.00127 
v -0.00684994 -0.00767067 0.00127 
v -0.014154 0.00654832 0.00127 
v -0.00701249 -0.00774587 0.00127 
v -0.014779 0.00497962 0.00127 
v -0.0152307 0.00335254 0.00127 
v 0.013363 -0.00804024 0.00127 
v 0.014154 -0.00654832 0.00127 
v 0.0152307 -0.00335254 0.00127 
v -0.00530949 -0.0078382 0.00127 
v -0.00516691 -0.00794659 0.00127 
v -0.00650531 -0.00757498 0.00127 
v -0.00716595 -0.0078382 0.00127 
v -0.0155039 0.00168615 0.00127 
v -0.00788207 -0.00902841 0.00127 
v -0.013363 -0.00804024 0.00127 
v -0.0124153 -0.0094379 0.00127 
v -0.00546295 -0.0106686 0.00127 
v -0.00562549 -0.0107438 0.00127 
v -0.0041722 -0.0150269 0.00127 
v 0.0155039 0.00168615 0.00127 
v 0.0152307 0.00335254 0.00127 
v -0.00730852 -0.00794659 0.00127 
v -0.0155953 9.54939e-19 0.00127 
v -0.00743855 -0.00806975 0.00127 
v -0.0155039 -0.00168615 0.00127 
v -0.00755449 -0.00820625 0.00127 
v -0.0152307 -0.00335254 0.00127 
v -0.007655 -0.00835449 0.00127 
v -0.014779 -0.00497962 0.00127 
v -0.00773889 -0.00851272 0.00127 
v -0.014154 -0.00654832 0.00127 
v -0.00780518 -0.0086791 0.00127 
v -0.00789176 -0.00920724 0.00127 
v -0.00788207 -0.00938607 0.00127 
v -0.0113222 -0.0107249 0.00127 
v -0.00875191 -0.0129081 0.00127 
v -0.00730852 -0.0104679 0.00127 
v -0.00743855 -0.0103447 0.00127 
v -0.00730499 -0.0137787 0.00127 
v -0.00577243 -0.0144877 0.00127 
v -0.00632727 -0.0108589 0.00127 
v -0.00579521 -0.010801 0.00127 
v -0.00597012 -0.0108395 0.00127 
v -0.00252305 -0.0153899 0.00127 
v -0.00516691 -0.0104679 0.00127 
v -0.00530949 -0.0105763 0.00127 
v -0.00473655 -0.00990176 0.00127 
v -0.00482044 -0.01006 0.00127 
v 0.0041722 -0.0150269 0.00127 
v -0.00467026 -0.00973538 0.00127 
v 0.00577243 -0.0144877 0.00127 
v -0.00459337 -0.00938607 0.00127 
v -0.00462234 -0.00956281 0.00127 
v 0.00875191 -0.0129081 0.00127 
v -0.00785309 -0.00885167 0.00127 
v -0.00785309 -0.00956281 0.00127 
v -0.0100962 -0.0118862 0.00127 
v -0.007655 -0.01006 0.00127 
v -0.00773889 -0.00990176 0.00127 
v -0.00716595 -0.0105763 0.00127 
v -0.00684994 -0.0107438 0.00127 
v -0.00614817 -0.0108589 0.00127 
v -0.000844315 -0.0155725 0.00127 
v -0.00503689 -0.0103447 0.00127 
v -0.00492094 -0.0102082 0.00127 
v 0.000844315 -0.0155725 0.00127 
v 0.00730499 -0.0137787 0.00127 
v 0.0100962 -0.0118862 0.00127 
v 0.0113222 -0.0107249 0.00127 
v -0.00780518 -0.00973538 0.00127 
v -0.00755449 -0.0102082 0.00127 
v -0.00701249 -0.0106686 0.00127 
v -0.00668022 -0.010801 0.00127 
v 0.00252305 -0.0153899 0.00127 
v -0.00650531 -0.0108395 0.00127 
v -0.0155953 9.54939e-19 0 
v -0.0155039 0.00168615 0 
v -0.0152307 0.00335254 0 
v -0.014779 0.00497962 0 
v -0.014154 0.00654832 0 
v -0.013363 0.00804024 0 
v -0.0124153 0.0094379 0 
v -0.0113222 0.0107249 0 
v -0.0100962 0.0118862 0 
v -0.00875191 0.0129081 0 
v -0.00730499 0.0137787 0 
v -0.00577243 0.0144877 0 
v -0.0041722 0.0150269 0 
v -0.00252305 0.0153899 0 
v -0.000844315 0.0155725 0 
v 0.000844315 0.0155725 0 
v 0.00252305 0.0153899 0 
v 0.0041722 0.0150269 0 
v 0.00577243 0.0144877 0 
v 0.00730499 0.0137787 0 
v 0.00875191 0.0129081 0 
v 0.0100962 0.0118862 0 
v 0.0113222 0.0107249 0 
v 0.0124153 0.0094379 0 
v 0.013363 0.00804024 0 
v 0.014154 0.00654832 0 
v 0.014779 0.00497962 0 
v 0.0152307 0.00335254 0 
v 0.0155039 0.00168615 0 
v 0.0155953 2.86482e-18 0 
v 0.0155039 -0.00168615 0 
v 0.0152307 -0.00335254 0 
v 0.014779 -0.00497962 0 
v 0.014154 -0.00654832 0 
v 0.013363 -0.00804024 0 
v 0.0124153 -0.0094379 0 
v 0.0113222 -0.0107249 0 
v 0.0100962 -0.0118862 0 
v 0.00875191 -0.0129081 0 
v 0.00730499 -0.0137787 0 
v 0.00577243 -0.0144877 0 
v 0.0041722 -0.0150269 0 
v 0.00252305 -0.0153899 0 
v 0.000844315 -0.0155725 0 
v -0.000844315 -0.0155725 0 
v -0.00252305 -0.0153899 0 
v -0.0041722 -0.0150269 0 
v -0.00577243 -0.0144877 0 
v -0.00730499 -0.0137787 0 
v -0.00875191 -0.0129081 0 
v -0.0100962 -0.0118862 0 
v -0.0113222 -0.0107249 0 
v -0.0124153 -0.0094379 0 
v -0.013363 -0.00804024 0 
v -0.014154 -0.00654832 0 
v -0.014779 -0.00497962 0 
v -0.0152307 -0.00335254 0 
v -0.0155039 -0.00168615 0 
v 0 9.54939e-19 0 
v -0.00789176 -0.00920724 0.002032 
v -0.00788207 -0.00902841 0.002032 
v -0.00785309 -0.00885167 0.002032 
v -0.00780518 -0.0086791 0.002032 
v -0.00773889 -0.00851272 0.002032 
v -0.007655 -0.00835449 0.002032 
v -0.00755449 -0.00820625 0.002032 
v -0.00743855 -0.00806975 0.002032 
v -0.00730852 -0.00794659 0.002032 
v -0.00716595 -0.0078382 0.002032 
v -0.00701249 -0.00774587 0.002032 
v -0.00684994 -0.00767067 0.002032 
v -0.00668022 -0.00761348 0.002032 
v -0.00650531 -0.00757498 0.002032 
v -0.00632727 -0.00755562 0.002032 
v -0.00614817 -0.00755562 0.002032 
v -0.00597012 -0.00757498 0.002032 
v -0.00579521 -0.00761348 0.002032 
v -0.00562549 -0.00767067 0.002032 
v -0.00546295 -0.00774587 0.002032 
v -0.00530949 -0.0078382 0.002032 
v -0.00516691 -0.00794659 0.002032 
v -0.00503689 -0.00806975 0.002032 
v -0.00492094 -0.00820625 0.002032 
v -0.00482044 -0.00835449 0.002032 
v -0.00473655 -0.00851272 0.002032 
v -0.00467026 -0.0086791 0.002032 
v -0.00462234 -0.00885167 0.002032 
v -0.00459337 -0.00902841 0.002032 
v -0.00458367 -0.00920724 0.002032 
v -0.00459337 -0.00938607 0.002032 
v -0.00462234 -0.00956281 0.002032 
v -0.00467026 -0.00973538 0.002032 
v -0.00473655 -0.00990176 0.002032 
v -0.00482044 -0.01006 0.002032 
v -0.00492094 -0.0102082 0.002032 
v -0.00503689 -0.0103447 0.002032 
v -0.00516691 -0.0104679 0.002032 
v -0.00530949 -0.0105763 0.002032 
v -0.00546295 -0.0106686 0.002032 
v -0.00562549 -0.0107438 0.002032 
v -0.00579521 -0.010801 0.002032 
v -0.00597012 -0.0108395 0.002032 
v -0.00614817 -0.0108589 0.002032 
v -0.00632727 -0.0108589 0.002032 
v -0.00650531 -0.0108395 0.002032 
v -0.00668022 -0.010801 0.002032 
v -0.00684994 -0.0107438 0.002032 
v -0.00701249 -0.0106686 0.002032 
v -0.00716595 -0.0105763 0.002032 
v -0.00730852 -0.0104679 0.002032 
v -0.00743855 -0.0103447 0.002032 
v -0.00755449 -0.0102082 0.002032 
v -0.007655 -0.01006 0.002032 
v -0.00773889 -0.00990176 0.002032 
v -0.00780518 -0.00973538 0.002032 
v -0.00785309 -0.00956281 0.002032 
v -0.00788207 -0.00938607 0.002032 
v -0.00623772 -0.00920724 0.002032 
vn 0 0 1 
vn -0.80703 0 0.59051 
vn -0.802299 0.0872553 0.59051 
vn -0.788162 0.173488 0.59051 
vn -0.764785 0.257686 0.59051 
vn -0.732441 0.338863 0.59051 
vn -0.69151 0.416068 0.59051 
vn -0.642471 0.488394 0.59051 
vn -0.5859 0.554994 0.59051 
vn -0.52246 0.615088 0.59051 
vn -0.452895 0.66797 0.59051 
vn -0.37802 0.713021 0.59051 
vn -0.298713 0.749712 0.59051 
vn -0.215903 0.777614 0.59051 
vn -0.130563 0.796399 0.59051 
vn -0.0436917 0.805847 0.59051 
vn 0.0436917 0.805847 0.59051 
vn 0.130563 0.796399 0.59051 
vn 0.215903 0.777614 0.59051 
vn 0.298713 0.749712 0.59051 
vn 0.37802 0.713021 0.59051 
vn 0.452895 0.66797 0.59051 
vn 0.52246 0.615088 0.59051 
vn 0.5859 0.554994 0.59051 
vn 0.642471 0.488394 0.59051 
vn 0.69151 0.416068 0.59051 
vn 0.732441 0.338863 0.59051 
vn 0.764785 0.257686 0.59051 
vn 0.788162 0.173488 0.59051 
vn 0.802299 0.0872553 0.59051 
vn 0.80703 -1.67997e-16 0.59051 
vn 0.802299 -0.0872553 0.59051 
vn 0.788162 -0.173488 0.59051 
vn 0.764785 -0.257686 0.59051 
vn 0.732441 -0.338863 0.59051 
vn 0.69151 -0.416068 0.59051 
vn 0.642471 -0.488394 0.59051 
vn 0.5859 -0.554994 0.59051 
vn 0.52246 -0.615088 0.59051 
vn 0.452895 -0.66797 0.59051 
vn 0.37802 -0.713021 0.59051 
vn 0.298713 -0.749712 0.59051 
vn 0.215903 -0.777614 0.59051 
vn 0.130563 -0.796399 0.59051 
vn 0.0436917 -0.805847 0.59051 
vn -0.0436917 -0.805847 0.59051 
vn -0.130563 -0.796399 0.59051 
vn -0.215903 -0.777614 0.59051 
vn -0.298713 -0.749712 0.59051 
vn -0.37802 -0.713021 0.59051 
vn -0.452895 -0.66797 0.59051 
vn -0.52246 -0.615088 0.59051 
vn -0.5859 -0.554994 0.59051 
vn -0.642471 -0.488394 0.59051 
vn -0.69151 -0.416068 0.59051 
vn -0.732441 -0.338863 0.59051 
vn -0.764785 -0.257686 0.59051 
vn -0.788162 -0.173488 0.59051 
vn -0.802299 -0.0872553 0.59051 
vn 0 0 -1 
vn -1 0 0 
vn -0.994138 0.108119 0 
vn -0.976621 0.21497 0 
vn -0.947653 0.319302 0 
vn -0.907575 0.419889 0 
vn -0.856857 0.515554 0 
vn -0.796093 0.605174 0 
vn -0.725995 0.687699 0 
vn -0.647386 0.762162 0 
vn -0.561187 0.827689 0 
vn -0.468408 0.883512 0 
vn -0.370138 0.928977 0 
vn -0.267528 0.96355 0 
vn -0.161782 0.986827 0 
vn -0.0541389 0.998533 0 
vn 0.0541389 0.998533 0 
vn 0.161782 0.986827 0 
vn 0.267528 0.96355 0 
vn 0.370138 0.928977 0 
vn 0.468408 0.883512 0 
vn 0.561187 0.827689 0 
vn 0.647386 0.762162 0 
vn 0.725995 0.687699 0 
vn 0.796093 0.605174 0 
vn 0.856857 0.515554 0 
vn 0.907575 0.419889 0 
vn 0.947653 0.319302 0 
vn 0.976621 0.21497 0 
vn 0.994138 0.108119 0 
vn 1 1.22465e-16 0 
vn 0.994138 -0.108119 0 
vn 0.976621 -0.21497 0 
vn 0.947653 -0.319302 0 
vn 0.907575 -0.419889 0 
vn 0.856857 -0.515554 0 
vn 0.796093 -0.605174 0 
vn 0.725995 -0.687699 0 
vn 0.647386 -0.762162 0 
vn 0.561187 -0.827689 0 
vn 0.468408 -0.883512 0 
vn 0.370138 -0.928977 0 
vn 0.267528 -0.96355 0 
vn 0.161782 -0.986827 0 
vn 0.0541389 -0.998533 0 
vn -0.0541389 -0.998533 0 
vn -0.161782 -0.986827 0 
vn -0.267528 -0.96355 0 
vn -0.370138 -0.928977 0 
vn -0.468408 -0.883512 0 
vn -0.561187 -0.827689 0 
vn -0.647386 -0.762162 0 
vn -0.725995 -0.687699 0 
vn -0.796093 -0.605174 0 
vn -0.856857 -0.515554 0 
vn -0.907575 -0.419889 0 
vn -0.947653 -0.319302 0 
vn -0.976621 -0.21497 0 
vn -0.994138 -0.108119 0 
vn 0 0 1 
vn -1 0 0 
vn -0.994138 0.108119 0 
vn -0.976621 0.21497 0 
vn -0.947653 0.319302 0 
vn -0.907575 0.419889 0 
vn -0.856857 0.515554 0 
vn -0.796093 0.605174 0 
vn -0.725995 0.687699 0 
vn -0.647386 0.762162 0 
vn -0.561187 0.827689 0 
vn -0.468408 0.883512 0 
vn -0.370138 0.928977 0 
vn -0.267528 0.96355 0 
vn -0.161782 0.986827 0 
vn -0.0541389 0.998533 0 
vn 0.0541389 0.998533 0 
vn 0.161782 0.986827 0 
vn 0.267528 0.96355 0 
vn 0.370138 0.928977 0 
vn 0.468408 0.883512 0 
vn 0.561187 0.827689 0 
vn 0.647386 0.762162 0 
vn 0.725995 0.687699 0 
vn 0.796093 0.605174 0 
vn 0.856857 0.515554 0 
vn 0.907575 0.419889 0 
vn 0.947653 0.319302 0 
vn 0.976621 0.21497 0 
vn 0.994138 0.108119 0 
vn 1 1.22465e-16 0 
vn 0.994138 -0.108119 0 
vn 0.976621 -0.21497 0 
vn 0.947653 -0.319302 0 
vn 0.907575 -0.419889 0 
vn 0.856857 -0.515554 0 
vn 0.796093 -0.605174 0 
vn 0.725995 -0.687699 0 
vn 0.647386 -0.762162 0 
vn 0.561187 -0.827689 0 
vn 0.468408 -0.883512 0 
vn 0.370138 -0.928977 0 
vn 0.267528 -0.96355 0 
vn 0.161782 -0.986827 0 
vn 0.0541389 -0.998533 0 
vn -0.0541389 -0.998533 0 
vn -0.161782 -0.986827 0 
vn -0.267528 -0.96355 0 
vn -0.370138 -0.928977 0 
vn -0.468408 -0.883512 0 
vn -0.561187 -0.827689 0 
vn -0.647386 -0.762162 0 
vn -0.725995 -0.687699 0 
vn -0.796093 -0.605174 0 
vn -0.856857 -0.515554 0 
vn -0.907575 -0.419889 0 
vn -0.947653 -0.319302 0 
vn -0.976621 -0.21497 0 
vn -0.994138 -0.108119 0 
vn 0 0 -1 
vn -1 0 0 
vn -0.994138 0.108119 0 
vn -0.976621 0.21497 0 
vn -0.947653 0.319302 0 
vn -0.907575 0.419889 0 
vn -0.856857 0.515554 0 
vn -0.796093 0.605174 0 
vn -0.725995 0.687699 0 
vn -0.647386 0.762162 0 
vn -0.561187 0.827689 0 
vn -0.468408 0.883512 0 
vn -0.370138 0.928977 0 
vn -0.267528 0.96355 0 
vn -0.161782 0.986827 0 
vn -0.0541389 0.998533 0 
vn 0.0541389 0.998533 0 
vn 0.161782 0.986827 0 
vn 0.267528 0.96355 0 
vn 0.370138 0.928977 0 
vn 0.468408 0.883512 0 
vn 0.561187 0.827689 0 
vn 0.647386 0.762162 0 
vn 0.725995 0.687699 0 
vn 0.796093 0.605174 0 
vn 0.856857 0.515554 0 
vn 0.907575 0.419889 0 
vn 0.947653 0.319302 0 
vn 0.976621 0.21497 0 
vn 0.994138 0.108119 0 
vn 1 1.22465e-16 0 
vn 0.994138 -0.108119 0 
vn 0.976621 -0.21497 0 
vn 0.947653 -0.319302 0 
vn 0.907575 -0.419889 0 
vn 0.856857 -0.515554 0 
vn 0.796093 -0.605174 0 
vn 0.725995 -0.687699 0 
vn 0.647386 -0.762162 0 
vn 0.561187 -0.827689 0 
vn 0.468408 -0.883512 0 
vn 0.370138 -0.928977 0 
vn 0.267528 -0.96355 0 
vn 0.161782 -0.986827 0 
vn 0.0541389 -0.998533 0 
vn -0.0541389 -0.998533 0 
vn -0.161782 -0.986827 0 
vn -0.267528 -0.96355 0 
vn -0.370138 -0.928977 0 
vn -0.468408 -0.883512 0 
vn -0.561187 -0.827689 0 
vn -0.647386 -0.762162 0 
vn -0.725995 -0.687699 0 
vn -0.796093 -0.605174 0 
vn -0.856857 -0.515554 0 
vn -0.907575 -0.419889 0 
vn -0.947653 -0.319302 0 
vn -0.976621 -0.21497 0 
vn -0.994138 -0.108119 0 
vn 0 0 1 
usemtl 0.615686_0.811765_0.929412_0.000000_0.000000
o mesh0
f 59//1 1//1 2//1 
f 2//1 3//1 59//1 
f 3//1 4//1 59//1 
f 4//1 5//1 59//1 
f 5//1 6//1 59//1 
f 6//1 7//1 59//1 
f 7//1 8//1 59//1 
f 8//1 9//1 59//1 
f 9//1 10//1 59//1 
f 10//1 11//1 59//1 
f 11//1 12//1 59//1 
f 12//1 13//1 59//1 
f 13//1 14//1 59//1 
f 14//1 15//1 59//1 
f 15//1 16//1 59//1 
f 16//1 17//1 59//1 
f 17//1 18//1 59//1 
f 18//1 19//1 59//1 
f 19//1 20//1 59//1 
f 20//1 21//1 59//1 
f 21//1 22//1 59//1 
f 22//1 23//1 59//1 
f 23//1 24//1 59//1 
f 24//1 25//1 59//1 
f 25//1 26//1 59//1 
f 26//1 27//1 59//1 
f 27//1 28//1 59//1 
f 28//1 29//1 59//1 
f 29//1 30//1 59//1 
f 30//1 31//1 59//1 
f 31//1 32//1 59//1 
f 32//1 33//1 59//1 
f 33//1 34//1 59//1 
f 34//1 35//1 59//1 
f 35//1 36//1 59//1 
f 36//1 37//1 59//1 
f 37//1 38//1 59//1 
f 38//1 39//1 59//1 
f 39//1 40//1 59//1 
f 40//1 41//1 59//1 
f 41//1 42//1 59//1 
f 42//1 43//1 59//1 
f 43//1 44//1 59//1 
f 44//1 45//1 59//1 
f 45//1 46//1 59//1 
f 46//1 47//1 59//1 
f 47//1 48//1 59//1 
f 48//1 49//1 59//1 
f 49//1 50//1 59//1 
f 50//1 51//1 59//1 
f 51//1 52//1 59//1 
f 52//1 53//1 59//1 
f 53//1 54//1 59//1 
f 54//1 55//1 59//1 
f 55//1 56//1 59//1 
f 56//1 57//1 59//1 
f 57//1 58//1 59//1 
f 58//1 1//1 59//1 
o mesh1
f 60//2 29//2 28//3 
f 61//3 28//3 27//4 
f 62//4 27//4 26//5 
f 63//5 26//5 25//6 
f 64//6 25//6 24//7 
f 65//7 24//7 23//8 
f 66//8 23//8 22//9 
f 67//9 22//9 21//10 
f 68//10 21//10 20//11 
f 69//11 20//11 19//12 
f 70//12 19//12 18//13 
f 71//13 18//13 17//14 
f 72//14 17//14 16//15 
f 73//15 16//15 15//16 
f 74//16 15//16 14//17 
f 75//17 14//17 13//18 
f 76//18 13//18 12//19 
f 77//19 12//19 11//20 
f 78//20 11//20 10//21 
f 79//21 10//21 9//22 
f 80//22 9//22 8//23 
f 81//23 8//23 7//24 
f 82//24 7//24 6//25 
f 83//25 6//25 5//26 
f 84//26 5//26 4//27 
f 85//27 4//27 3//28 
f 86//28 3//28 2//29 
f 87//29 2//29 1//30 
f 88//30 1//30 58//31 
f 89//31 58//31 57//32 
f 90//32 57//32 56//33 
f 91//33 56//33 55//34 
f 92//34 55//34 54//35 
f 93//35 54//35 53//36 
f 94//36 53//36 52//37 
f 95//37 52//37 51//38 
f 96//38 51//38 50//39 
f 97//39 50//39 49//40 
f 98//40 49//40 48//41 
f 99//41 48//41 47//42 
f 100//42 47//42 46//43 
f 101//43 46//43 45//44 
f 102//44 45//44 44//45 
f 103//45 44//45 43//46 
f 104//46 43//46 42//47 
f 105//47 42//47 41//48 
f 106//48 41//48 40//49 
f 107//49 40//49 39//50 
f 108//50 39//50 38//51 
f 109//51 38//51 37//52 
f 110//52 37//52 36//53 
f 111//53 36//53 35//54 
f 112//54 35//54 34//55 
f 113//55 34//55 33//56 
f 114//56 33//56 32//57 
f 115//57 32//57 31//58 
f 116//58 31//58 30//59 
f 117//59 30//59 29//2 
f 29//2 60//2 117//59 
f 30//59 117//59 116//58 
f 31//58 116//58 115//57 
f 32//57 115//57 114//56 
f 33//56 114//56 113//55 
f 34//55 113//55 112//54 
f 35//54 112//54 111//53 
f 36//53 111//53 110//52 
f 37//52 110//52 109//51 
f 38//51 109//51 108//50 
f 39//50 108//50 107//49 
f 40//49 107//49 106//48 
f 41//48 106//48 105//47 
f 42//47 105//47 104//46 
f 43//46 104//46 103//45 
f 44//45 103//45 102//44 
f 45//44 102//44 101//43 
f 46//43 101//43 100//42 
f 47//42 100//42 99//41 
f 48//41 99//41 98//40 
f 49//40 98//40 97//39 
f 50//39 97//39 96//38 
f 51//38 96//38 95//37 
f 52//37 95//37 94//36 
f 53//36 94//36 93//35 
f 54//35 93//35 92//34 
f 55//34 92//34 91//33 
f 56//33 91//33 90//32 
f 57//32 90//32 89//31 
f 58//31 89//31 88//30 
f 1//30 88//30 87//29 
f 2//29 87//29 86//28 
f 3//28 86//28 85//27 
f 4//27 85//27 84//26 
f 5//26 84//26 83//25 
f 6//25 83//25 82//24 
f 7//24 82//24 81//23 
f 8//23 81//23 80//22 
f 9//22 80//22 79//21 
f 10//21 79//21 78//20 
f 11//20 78//20 77//19 
f 12//19 77//19 76//18 
f 13//18 76//18 75//17 
f 14//17 75//17 74//16 
f 15//16 74//16 73//15 
f 16//15 73//15 72//14 
f 17//14 72//14 71//13 
f 18//13 71//13 70//12 
f 19//12 70//12 69//11 
f 20//11 69//11 68//10 
f 21//10 68//10 67//9 
f 22//9 67//9 66//8 
f 23//8 66//8 65//7 
f 24//7 65//7 64//6 
f 25//6 64//6 63//5 
f 26//5 63//5 62//4 
f 27//4 62//4 61//3 
f 28//3 61//3 60//2 
o mesh2
f 93//60 118//60 119//60 
f 93//60 94//60 120//60 
f 73//60 121//60 122//60 
f 73//60 74//60 123//60 
f 74//60 75//60 124//60 
f 75//60 76//60 125//60 
f 120//60 118//60 93//60 
f 94//60 95//60 126//60 
f 96//60 127//60 126//60 
f 96//60 97//60 128//60 
f 98//60 99//60 129//60 
f 99//60 100//60 130//60 
f 103//60 131//60 132//60 
f 104//60 133//60 131//60 
f 105//60 134//60 133//60 
f 106//60 135//60 134//60 
f 123//60 121//60 73//60 
f 125//60 124//60 75//60 
f 76//60 77//60 136//60 
f 77//60 78//60 137//60 
f 80//60 138//60 139//60 
f 80//60 81//60 140//60 
f 126//60 120//60 94//60 
f 128//60 127//60 96//60 
f 97//60 98//60 141//60 
f 130//60 129//60 99//60 
f 101//60 142//60 130//60 
f 101//60 102//60 132//60 
f 131//60 103//60 104//60 
f 134//60 105//60 106//60 
f 107//60 143//60 135//60 
f 108//60 144//60 143//60 
f 71//60 145//60 146//60 
f 71//60 72//60 122//60 
f 124//60 123//60 74//60 
f 137//60 136//60 77//60 
f 140//60 138//60 80//60 
f 81//60 82//60 147//60 
f 126//60 95//60 96//60 
f 129//60 141//60 98//60 
f 132//60 142//60 101//60 
f 133//60 104//60 105//60 
f 143//60 107//60 108//60 
f 109//60 148//60 144//60 
f 110//60 149//60 148//60 
f 111//60 150//60 149//60 
f 122//60 145//60 71//60 
f 136//60 125//60 76//60 
f 78//60 79//60 139//60 
f 147//60 140//60 81//60 
f 83//60 151//60 147//60 
f 83//60 84//60 152//60 
f 85//60 153//60 152//60 
f 85//60 86//60 154//60 
f 141//60 128//60 97//60 
f 132//60 102//60 103//60 
f 144//60 108//60 109//60 
f 149//60 110//60 111//60 
f 68//60 155//60 156//60 
f 69//60 157//60 155//60 
f 122//60 72//60 73//60 
f 139//60 79//60 80//60 
f 152//60 151//60 83//60 
f 154//60 153//60 85//60 
f 130//60 100//60 101//60 
f 148//60 109//60 110//60 
f 113//60 158//60 159//60 
f 114//60 160//60 158//60 
f 61//60 161//60 162//60 
f 61//60 62//60 163//60 
f 64//60 164//60 165//60 
f 64//60 65//60 166//60 
f 66//60 167//60 166//60 
f 66//60 67//60 156//60 
f 155//60 68//60 69//60 
f 69//60 70//60 146//60 
f 139//60 137//60 78//60 
f 152//60 84//60 85//60 
f 88//60 168//60 169//60 
f 88//60 89//60 170//60 
f 135//60 106//60 107//60 
f 112//60 159//60 150//60 
f 158//60 113//60 114//60 
f 115//60 171//60 160//60 
f 117//60 172//60 173//60 
f 117//60 60//60 162//60 
f 163//60 161//60 61//60 
f 62//60 63//60 165//60 
f 166//60 164//60 64//60 
f 156//60 167//60 66//60 
f 146//60 157//60 69//60 
f 147//60 82//60 83//60 
f 87//60 169//60 154//60 
f 170//60 168//60 88//60 
f 90//60 174//60 170//60 
f 90//60 91//60 175//60 
f 150//60 111//60 112//60 
f 160//60 114//60 115//60 
f 116//60 173//60 171//60 
f 162//60 172//60 117//60 
f 165//60 163//60 62//60 
f 166//60 65//60 66//60 
f 146//60 70//60 71//60 
f 169//60 87//60 88//60 
f 175//60 174//60 90//60 
f 91//60 92//60 119//60 
f 159//60 112//60 113//60 
f 173//60 116//60 117//60 
f 165//60 63//60 64//60 
f 154//60 86//60 87//60 
f 119//60 175//60 91//60 
f 171//60 115//60 116//60 
f 156//60 67//60 68//60 
f 119//60 92//60 93//60 
f 170//60 89//60 90//60 
f 162//60 60//60 61//60 
o mesh3
f 176//61 162//61 161//62 
f 177//62 161//62 163//63 
f 178//63 163//63 165//64 
f 179//64 165//64 164//65 
f 180//65 164//65 166//66 
f 181//66 166//66 167//67 
f 182//67 167//67 156//68 
f 183//68 156//68 155//69 
f 184//69 155//69 157//70 
f 185//70 157//70 146//71 
f 186//71 146//71 145//72 
f 187//72 145//72 122//73 
f 188//73 122//73 121//74 
f 189//74 121//74 123//75 
f 190//75 123//75 124//76 
f 191//76 124//76 125//77 
f 192//77 125//77 136//78 
f 193//78 136//78 137//79 
f 194//79 137//79 139//80 
f 195//80 139//80 138//81 
f 196//81 138//81 140//82 
f 197//82 140//82 147//83 
f 198//83 147//83 151//84 
f 199//84 151//84 152//85 
f 200//85 152//85 153//86 
f 201//86 153//86 154//87 
f 202//87 154//87 169//88 
f 203//88 169//88 168//89 
f 204//89 168//89 170//90 
f 205//90 170//90 174//91 
f 206//91 174//91 175//92 
f 207//92 175//92 119//93 
f 208//93 119//93 118//94 
f 209//94 118//94 120//95 
f 210//95 120//95 126//96 
f 211//96 126//96 127//97 
f 212//97 127//97 128//98 
f 213//98 128//98 141//99 
f 214//99 141//99 129//100 
f 215//100 129//100 130//101 
f 216//101 130//101 142//102 
f 217//102 142//102 132//103 
f 218//103 132//103 131//104 
f 219//104 131//104 133//105 
f 220//105 133//105 134//106 
f 221//106 134//106 135//107 
f 222//107 135//107 143//108 
f 223//108 143//108 144//109 
f 224//109 144//109 148//110 
f 225//110 148//110 149//111 
f 226//111 149//111 150//112 
f 227//112 150//112 159//113 
f 228//113 159//113 158//114 
f 229//114 158//114 160//115 
f 230//115 160//115 171//116 
f 231//116 171//116 173//117 
f 232//117 173//117 172//118 
f 233//118 172//118 162//61 
f 162//61 176//61 233//118 
f 172//118 233//118 232//117 
f 173//117 232//117 231//116 
f 171//116 231//116 230//115 
f 160//115 230//115 229//114 
f 158//114 229//114 228//113 
f 159//113 228//113 227//112 
f 150//112 227//112 226//111 
f 149//111 226//111 225//110 
f 148//110 225//110 224//109 
f 144//109 224//109 223//108 
f 143//108 223//108 222//107 
f 135//107 222//107 221//106 
f 134//106 221//106 220//105 
f 133//105 220//105 219//104 
f 131//104 219//104 218//103 
f 132//103 218//103 217//102 
f 142//102 217//102 216//101 
f 130//101 216//101 215//100 
f 129//100 215//100 214//99 
f 141//99 214//99 213//98 
f 128//98 213//98 212//97 
f 127//97 212//97 211//96 
f 126//96 211//96 210//95 
f 120//95 210//95 209//94 
f 118//94 209//94 208//93 
f 119//93 208//93 207//92 
f 175//92 207//92 206//91 
f 174//91 206//91 205//90 
f 170//90 205//90 204//89 
f 168//89 204//89 203//88 
f 169//88 203//88 202//87 
f 154//87 202//87 201//86 
f 153//86 201//86 200//85 
f 152//85 200//85 199//84 
f 151//84 199//84 198//83 
f 147//83 198//83 197//82 
f 140//82 197//82 196//81 
f 138//81 196//81 195//80 
f 139//80 195//80 194//79 
f 137//79 194//79 193//78 
f 136//78 193//78 192//77 
f 125//77 192//77 191//76 
f 124//76 191//76 190//75 
f 123//75 190//75 189//74 
f 121//74 189//74 188//73 
f 122//73 188//73 187//72 
f 145//72 187//72 186//71 
f 146//71 186//71 185//70 
f 157//70 185//70 184//69 
f 155//69 184//69 183//68 
f 156//68 183//68 182//67 
f 167//67 182//67 181//66 
f 166//66 181//66 180//65 
f 164//65 180//65 179//64 
f 165//64 179//64 178//63 
f 163//63 178//63 177//62 
f 161//62 177//62 176//61 
o mesh4
f 234//119 191//119 192//119 
f 234//119 183//119 184//119 
f 235//119 193//119 194//119 
f 235//119 236//119 192//119 
f 234//119 190//119 191//119 
f 234//119 182//119 183//119 
f 192//119 193//119 235//119 
f 234//119 189//119 190//119 
f 234//119 185//119 186//119 
f 234//119 181//119 182//119 
f 237//119 228//119 229//119 
f 192//119 236//119 234//119 
f 234//119 187//119 188//119 
f 184//119 185//119 234//119 
f 234//119 179//119 180//119 
f 229//119 230//119 237//119 
f 238//119 202//119 203//119 
f 238//119 239//119 201//119 
f 239//119 240//119 200//119 
f 240//119 241//119 199//119 
f 188//119 189//119 234//119 
f 180//119 181//119 234//119 
f 237//119 178//119 179//119 
f 237//119 176//119 177//119 
f 230//119 231//119 237//119 
f 237//119 226//119 227//119 
f 226//119 242//119 243//119 
f 201//119 202//119 238//119 
f 199//119 200//119 240//119 
f 244//119 197//119 198//119 
f 244//119 245//119 196//119 
f 245//119 246//119 195//119 
f 246//119 247//119 194//119 
f 186//119 187//119 234//119 
f 177//119 178//119 237//119 
f 227//119 228//119 237//119 
f 226//119 237//119 242//119 
f 243//119 222//119 223//119 
f 243//119 220//119 221//119 
f 200//119 201//119 239//119 
f 241//119 248//119 198//119 
f 196//119 197//119 244//119 
f 194//119 195//119 246//119 
f 179//119 234//119 237//119 
f 237//119 232//119 233//119 
f 243//119 225//119 226//119 
f 223//119 224//119 243//119 
f 243//119 219//119 220//119 
f 249//119 250//119 212//119 
f 198//119 199//119 241//119 
f 195//119 196//119 245//119 
f 233//119 176//119 237//119 
f 224//119 225//119 243//119 
f 243//119 218//119 219//119 
f 243//119 216//119 217//119 
f 243//119 213//119 214//119 
f 250//119 211//119 212//119 
f 198//119 248//119 244//119 
f 231//119 232//119 237//119 
f 217//119 218//119 243//119 
f 214//119 215//119 243//119 
f 251//119 252//119 253//119 
f 212//119 254//119 255//119 
f 194//119 247//119 235//119 
f 215//119 216//119 243//119 
f 237//119 256//119 257//119 
f 258//119 257//119 259//119 
f 251//119 259//119 252//119 
f 260//119 261//119 262//119 
f 263//119 264//119 265//119 
f 266//119 267//119 268//119 
f 269//119 270//119 271//119 
f 272//119 269//119 273//119 
f 250//119 210//119 211//119 
f 250//119 208//119 209//119 
f 250//119 205//119 206//119 
f 254//119 212//119 213//119 
f 221//119 222//119 243//119 
f 237//119 234//119 256//119 
f 253//119 260//119 251//119 
f 260//119 253//119 261//119 
f 263//119 274//119 264//119 
f 275//119 265//119 276//119 
f 277//119 278//119 279//119 
f 268//119 280//119 266//119 
f 270//119 266//119 281//119 
f 271//119 282//119 269//119 
f 250//119 249//119 272//119 
f 209//119 210//119 250//119 
f 206//119 207//119 250//119 
f 213//119 283//119 284//119 
f 257//119 258//119 237//119 
f 262//119 285//119 260//119 
f 285//119 262//119 274//119 
f 276//119 277//119 275//119 
f 277//119 276//119 278//119 
f 286//119 279//119 287//119 
f 288//119 289//119 290//119 
f 291//119 292//119 293//119 
f 281//119 271//119 270//119 
f 273//119 250//119 272//119 
f 207//119 208//119 250//119 
f 213//119 243//119 283//119 
f 294//119 204//119 205//119 
f 294//119 295//119 203//119 
f 259//119 251//119 258//119 
f 265//119 275//119 263//119 
f 287//119 296//119 286//119 
f 296//119 287//119 297//119 
f 298//119 297//119 299//119 
f 300//119 299//119 301//119 
f 302//119 301//119 303//119 
f 304//119 303//119 305//119 
f 306//119 305//119 289//119 
f 290//119 307//119 288//119 
f 308//119 290//119 309//119 
f 310//119 311//119 312//119 
f 313//119 314//119 315//119 
f 316//119 317//119 314//119 
f 293//119 318//119 291//119 
f 319//119 320//119 318//119 
f 321//119 322//119 323//119 
f 324//119 321//119 325//119 
f 326//119 327//119 328//119 
f 282//119 273//119 269//119 
f 213//119 284//119 254//119 
f 203//119 204//119 294//119 
f 274//119 263//119 285//119 
f 297//119 298//119 296//119 
f 301//119 302//119 300//119 
f 305//119 306//119 304//119 
f 288//119 329//119 289//119 
f 309//119 330//119 308//119 
f 331//119 332//119 333//119 
f 310//119 334//119 311//119 
f 310//119 313//119 335//119 
f 314//119 336//119 315//119 
f 292//119 316//119 293//119 
f 318//119 337//119 319//119 
f 338//119 319//119 337//119 
f 339//119 338//119 340//119 
f 325//119 341//119 324//119 
f 327//119 324//119 341//119 
f 328//119 342//119 326//119 
f 267//119 326//119 343//119 
f 212//119 255//119 249//119 
f 203//119 295//119 238//119 
f 299//119 300//119 298//119 
f 289//119 329//119 306//119 
f 309//119 344//119 330//119 
f 333//119 309//119 331//119 
f 331//119 312//119 345//119 
f 310//119 346//119 334//119 
f 313//119 347//119 335//119 
f 314//119 317//119 336//119 
f 320//119 291//119 318//119 
f 340//119 348//119 339//119 
f 322//119 339//119 348//119 
f 341//119 328//119 327//119 
f 343//119 268//119 267//119 
f 205//119 250//119 294//119 
f 303//119 304//119 302//119 
f 333//119 344//119 309//119 
f 312//119 331//119 310//119 
f 313//119 349//119 347//119 
f 314//119 293//119 316//119 
f 348//119 323//119 322//119 
f 342//119 343//119 326//119 
f 279//119 286//119 277//119 
f 345//119 332//119 331//119 
f 315//119 349//119 313//119 
f 323//119 325//119 321//119 
f 308//119 307//119 290//119 
f 337//119 340//119 338//119 
f 335//119 346//119 310//119 
f 280//119 281//119 266//119 
o mesh5
f 350//120 297//120 287//121 
f 351//121 287//121 279//122 
f 352//122 279//122 278//123 
f 353//123 278//123 276//124 
f 354//124 276//124 265//125 
f 355//125 265//125 264//126 
f 356//126 264//126 274//127 
f 357//127 274//127 262//128 
f 358//128 262//128 261//129 
f 359//129 261//129 253//130 
f 360//130 253//130 252//131 
f 361//131 252//131 259//132 
f 362//132 259//132 257//133 
f 363//133 257//133 256//134 
f 364//134 256//134 234//135 
f 365//135 234//135 236//136 
f 366//136 236//136 235//137 
f 367//137 235//137 247//138 
f 368//138 247//138 246//139 
f 369//139 246//139 245//140 
f 370//140 245//140 244//141 
f 371//141 244//141 248//142 
f 372//142 248//142 241//143 
f 373//143 241//143 240//144 
f 374//144 240//144 239//145 
f 375//145 239//145 238//146 
f 376//146 238//146 295//147 
f 377//147 295//147 294//148 
f 378//148 294//148 250//149 
f 379//149 250//149 273//150 
f 380//150 273//150 282//151 
f 381//151 282//151 271//152 
f 382//152 271//152 281//153 
f 383//153 281//153 280//154 
f 384//154 280//154 268//155 
f 385//155 268//155 343//156 
f 386//156 343//156 342//157 
f 387//157 342//157 328//158 
f 388//158 328//158 341//159 
f 389//159 341//159 325//160 
f 390//160 325//160 323//161 
f 391//161 323//161 348//162 
f 392//162 348//162 340//163 
f 393//163 340//163 337//164 
f 394//164 337//164 318//165 
f 395//165 318//165 293//166 
f 396//166 293//166 314//167 
f 397//167 314//167 313//168 
f 398//168 313//168 310//169 
f 399//169 310//169 331//170 
f 400//170 331//170 309//171 
f 401//171 309//171 290//172 
f 402//172 290//172 289//173 
f 403//173 289//173 305//174 
f 404//174 305//174 303//175 
f 405//175 303//175 301//176 
f 406//176 301//176 299//177 
f 407//177 299//177 297//120 
f 297//120 350//120 407//177 
f 299//177 407//177 406//176 
f 301//176 406//176 405//175 
f 303//175 405//175 404//174 
f 305//174 404//174 403//173 
f 289//173 403//173 402//172 
f 290//172 402//172 401//171 
f 309//171 401//171 400//170 
f 331//170 400//170 399//169 
f 310//169 399//169 398//168 
f 313//168 398//168 397//167 
f 314//167 397//167 396//166 
f 293//166 396//166 395//165 
f 318//165 395//165 394//164 
f 337//164 394//164 393//163 
f 340//163 393//163 392//162 
f 348//162 392//162 391//161 
f 323//161 391//161 390//160 
f 325//160 390//160 389//159 
f 341//159 389//159 388//158 
f 328//158 388//158 387//157 
f 342//157 387//157 386//156 
f 343//156 386//156 385//155 
f 268//155 385//155 384//154 
f 280//154 384//154 383//153 
f 281//153 383//153 382//152 
f 271//152 382//152 381//151 
f 282//151 381//151 380//150 
f 273//150 380//150 379//149 
f 250//149 379//149 378//148 
f 294//148 378//148 377//147 
f 295//147 377//147 376//146 
f 238//146 376//146 375//145 
f 239//145 375//145 374//144 
f 240//144 374//144 373//143 
f 241//143 373//143 372//142 
f 248//142 372//142 371//141 
f 244//141 371//141 370//140 
f 245//140 370//140 369//139 
f 246//139 369//139 368//138 
f 247//138 368//138 367//137 
f 235//137 367//137 366//136 
f 236//136 366//136 365//135 
f 234//135 365//135 364//134 
f 256//134 364//134 363//133 
f 257//133 363//133 362//132 
f 259//132 362//132 361//131 
f 252//131 361//131 360//130 
f 253//130 360//130 359//129 
f 261//129 359//129 358//128 
f 262//128 358//128 357//127 
f 274//127 357//127 356//126 
f 264//126 356//126 355//125 
f 265//125 355//125 354//124 
f 276//124 354//124 353//123 
f 278//123 353//123 352//122 
f 279//122 352//122 351//121 
f 287//121 351//121 350//120 
o mesh6
f 408//178 380//178 381//178 
f 381//178 382//178 408//178 
f 382//178 383//178 408//178 
f 383//178 384//178 408//178 
f 384//178 385//178 408//178 
f 385//178 386//178 408//178 
f 386//178 387//178 408//178 
f 387//178 388//178 408//178 
f 388//178 389//178 408//178 
f 389//178 390//178 408//178 
f 390//178 391//178 408//178 
f 391//178 392//178 408//178 
f 392//178 393//178 408//178 
f 393//178 394//178 408//178 
f 394//178 395//178 408//178 
f 395//178 396//178 408//178 
f 396//178 397//178 408//178 
f 397//178 398//178 408//178 
f 398//178 399//178 408//178 
f 399//178 400//178 408//178 
f 400//178 401//178 408//178 
f 401//178 402//178 408//178 
f 402//178 403//178 408//178 
f 403//178 404//178 408//178 
f 404//178 405//178 408//178 
f 405//178 406//178 408//178 
f 406//178 407//178 408//178 
f 407//178 350//178 408//178 
f 350//178 351//178 408//178 
f 351//178 352//178 408//178 
f 352//178 353//178 408//178 
f 353//178 354//178 408//178 
f 354//178 355//178 408//178 
f 355//178 356//178 408//178 
f 356//178 357//178 408//178 
f 357//178 358//178 408//178 
f 358//178 359//178 408//178 
f 359//178 360//178 408//178 
f 360//178 361//178 408//178 
f 361//178 362//178 408//178 
f 362//178 363//178 408//178 
f 363//178 364//178 408//178 
f 364//178 365//178 408//178 
f 365//178 366//178 408//178 
f 366//178 367//178 408//178 
f 367//178 368//178 408//178 
f 368//178 369//178 408//178 
f 369//178 370//178 408//178 
f 370//178 371//178 408//178 
f 371//178 372//178 408//178 
f 372//178 373//178 408//178 
f 373//178 374//178 408//178 
f 374//178 375//178 408//178 
f 375//178 376//178 408//178 
f 376//178 377//178 408//178 
f 377//178 378//178 408//178 
f 378//178 379//178 408//178 
f 379//178 380//178 408//178 
o mesh7
f 307//179 409//179 410//180 
f 288//180 410//180 411//181 
f 329//181 411//181 412//182 
f 306//182 412//182 413//183 
f 304//183 413//183 414//184 
f 302//184 414//184 415//185 
f 300//185 415//185 416//186 
f 298//186 416//186 417//187 
f 296//187 417//187 418//188 
f 286//188 418//188 419//189 
f 277//189 419//189 420//190 
f 275//190 420//190 421//191 
f 263//191 421//191 422//192 
f 285//192 422//192 423//193 
f 260//193 423//193 424//194 
f 251//194 424//194 425//195 
f 258//195 425//195 426//196 
f 237//196 426//196 427//197 
f 242//197 427//197 428//198 
f 243//198 428//198 429//199 
f 283//199 429//199 430//200 
f 284//200 430//200 431//201 
f 254//201 431//201 432//202 
f 255//202 432//202 433//203 
f 249//203 433//203 434//204 
f 272//204 434//204 435//205 
f 269//205 435//205 436//206 
f 270//206 436//206 437//207 
f 266//207 437//207 438//208 
f 267//208 438//208 439//209 
f 326//209 439//209 440//210 
f 327//210 440//210 441//211 
f 324//211 441//211 442//212 
f 321//212 442//212 443//213 
f 322//213 443//213 444//214 
f 339//214 444//214 445//215 
f 338//215 445//215 446//216 
f 319//216 446//216 447//217 
f 320//217 447//217 448//218 
f 291//218 448//218 449//219 
f 292//219 449//219 450//220 
f 316//220 450//220 451//221 
f 317//221 451//221 452//222 
f 336//222 452//222 453//223 
f 315//223 453//223 454//224 
f 349//224 454//224 455//225 
f 347//225 455//225 456//226 
f 335//226 456//226 457//227 
f 346//227 457//227 458//228 
f 334//228 458//228 459//229 
f 311//229 459//229 460//230 
f 312//230 460//230 461//231 
f 345//231 461//231 462//232 
f 332//232 462//232 463//233 
f 333//233 463//233 464//234 
f 344//234 464//234 465//235 
f 330//235 465//235 466//236 
f 308//236 466//236 409//179 
f 409//179 307//179 308//236 
f 466//236 308//236 330//235 
f 465//235 330//235 344//234 
f 464//234 344//234 333//233 
f 463//233 333//233 332//232 
f 462//232 332//232 345//231 
f 461//231 345//231 312//230 
f 460//230 312//230 311//229 
f 459//229 311//229 334//228 
f 458//228 334//228 346//227 
f 457//227 346//227 335//226 
f 456//226 335//226 347//225 
f 455//225 347//225 349//224 
f 454//224 349//224 315//223 
f 453//223 315//223 336//222 
f 452//222 336//222 317//221 
f 451//221 317//221 316//220 
f 450//220 316//220 292//219 
f 449//219 292//219 291//218 
f 448//218 291//218 320//217 
f 447//217 320//217 319//216 
f 446//216 319//216 338//215 
f 445//215 338//215 339//214 
f 444//214 339//214 322//213 
f 443//213 322//213 321//212 
f 442//212 321//212 324//211 
f 441//211 324//211 327//210 
f 440//210 327//210 326//209 
f 439//209 326//209 267//208 
f 438//208 267//208 266//207 
f 437//207 266//207 270//206 
f 436//206 270//206 269//205 
f 435//205 269//205 272//204 
f 434//204 272//204 249//203 
f 433//203 249//203 255//202 
f 432//202 255//202 254//201 
f 431//201 254//201 284//200 
f 430//200 284//200 283//199 
f 429//199 283//199 243//198 
f 428//198 243//198 242//197 
f 427//197 242//197 237//196 
f 426//196 237//196 258//195 
f 425//195 258//195 251//194 
f 424//194 251//194 260//193 
f 423//193 260//193 285//192 
f 422//192 285//192 263//191 
f 421//191 263//191 275//190 
f 420//190 275//190 277//189 
f 419//189 277//189 286//188 
f 418//188 286//188 296//187 
f 417//187 296//187 298//186 
f 416//186 298//186 300//185 
f 415//185 300//185 302//184 
f 414//184 302//184 304//183 
f 413//183 304//183 306//182 
f 412//182 306//182 329//181 
f 411//181 329//181 288//180 
f 410//180 288//180 307//179 
o mesh8
f 467//237 437//237 436//237 
f 436//237 435//237 467//237 
f 435//237 434//237 467//237 
f 434//237 433//237 467//237 
f 433//237 432//237 467//237 
f 432//237 431//237 467//237 
f 431//237 430//237 467//237 
f 430//237 429//237 467//237 
f 429//237 428//237 467//237 
f 428//237 427//237 467//237 
f 427//237 426//237 467//237 
f 426//237 425//237 467//237 
f 425//237 424//237 467//237 
f 424//237 423//237 467//237 
f 423//237 422//237 467//237 
f 422//237 421//237 467//237 
f 421//237 420//237 467//237 
f 420//237 419//237 467//237 
f 419//237 418//237 467//237 
f 418//237 417//237 467//237 
f 417//237 416//237 467//237 
f 416//237 415//237 467//237 
f 415//237 414//237 467//237 
f 414//237 413//237 467//237 
f 413//237 412//237 467//237 
f 412//237 411//237 467//237 
f 411//237 410//237 467//237 
f 410//237 409//237 467//237 
f 409//237 466//237 467//237 
f 466//237 465//237 467//237 
f 465//237 464//237 467//237 
f 464//237 463//237 467//237 
f 463//237 462//237 467//237 
f 462//237 461//237 467//237 
f 461//237 460//237 467//237 
f 460//237 459//237 467//237 
f 459//237 458//237 467//237 
f 458//237 457//237 467//237 
f 457//237 456//237 467//237 
f 456//237 455//237 467//237 
f 455//237 454//237 467//237 
f 454//237 453//237 467//237 
f 453//237 452//237 467//237 
f 452//237 451//237 467//237 
f 451//237 450//237 467//237 
f 450//237 449//237 467//237 
f 449//237 448//237 467//237 
f 448//237 447//237 467//237 
f 447//237 446//237 467//237 
f 446//237 445//237 467//237 
f 445//237 444//237 467//237 
f 444//237 443//237 467//237 
f 443//237 442//237 467//237 
f 442//237 441//237 467//237 
f 441//237 440//237 467//237 
f 440//237 439//237 467//237 
f 439//237 438//237 467//237 
f 438//237 437//237 467//237 
